<svg xmlns="http://www.w3.org/2000/svg" width="1200" height="900" viewBox="0 0 1200 900" role="img" aria-label="Hero T.PlayGames">
  <defs>
    <radialGradient id="blueGlow" cx="50%" cy="34%" r="68%">
      <stop offset="0%" stop-color="#1D6DFF" stop-opacity=".42"/>
      <stop offset="48%" stop-color="#1D6DFF" stop-opacity=".10"/>
      <stop offset="100%" stop-color="#070707" stop-opacity="0"/>
    </radialGradient>
    <linearGradient id="glass" x1="0" y1="0" x2="1" y2="1">
      <stop offset="0%" stop-color="#242833"/>
      <stop offset="55%" stop-color="#1B1D23"/>
      <stop offset="100%" stop-color="#0C0E13"/>
    </linearGradient>
    <filter id="softShadow" x="-20%" y="-20%" width="140%" height="140%">
      <feDropShadow dx="0" dy="34" stdDeviation="28" flood-color="#000000" flood-opacity=".45"/>
    </filter>
  </defs>
  <rect width="1200" height="900" fill="#070707"/>
  <rect width="1200" height="900" fill="url(#blueGlow)"/>
  <g opacity=".42">
    <path d="M0 720 C230 612 340 832 560 704 C760 588 916 642 1200 520" fill="none" stroke="#1D6DFF" stroke-width="2"/>
    <path d="M0 224 C220 148 356 286 530 204 C720 116 914 184 1200 78" fill="none" stroke="#2A2E39" stroke-width="2"/>
    <path d="M110 0 V900 M330 0 V900 M550 0 V900 M770 0 V900 M990 0 V900" stroke="#2A2E39" stroke-width="1" opacity=".24"/>
  </g>
  <g filter="url(#softShadow)">
      <rect x="116" y="112" width="968" height="676" rx="72" fill="url(#glass)" stroke="#2A2E39" stroke-width="3"/>
      <rect x="190" y="210" width="352" height="368" rx="44" fill="#F5F7FB"/>
      <rect x="574" y="230" width="118" height="328" rx="34" fill="#050608"/>
      <circle cx="642" cy="296" r="18" fill="#1D6DFF"/>
      <path d="M742 404c44-82 232-82 276 0 38 70 62 158 24 184-32 22-76-18-108-64H826c-32 46-76 86-108 64-38-26-14-114 24-184z" fill="#F5F7FB"/>
      <circle cx="806" cy="444" r="14" fill="#050608"/>
      <circle cx="956" cy="444" r="12" fill="#1D6DFF"/>
      <circle cx="986" cy="474" r="12" fill="#22C55E"/>
      <circle cx="926" cy="474" r="12" fill="#EF4444"/>
      <rect x="196" y="632" width="780" height="64" rx="22" fill="#050608" opacity=".55"/>
      <text x="586" y="675" fill="#FFFFFF" font-family="Inter,Arial" font-size="32" font-weight="900" text-anchor="middle">Consolas, controles y juegos</text>
    </g>
</svg>