<svg xmlns="http://www.w3.org/2000/svg" width="1200" height="900" viewBox="0 0 1200 900" role="img" aria-label="DETALLE DEMO">
  <defs>
    <radialGradient id="blueGlow" cx="50%" cy="34%" r="68%">
      <stop offset="0%" stop-color="#1D6DFF" stop-opacity=".42"/>
      <stop offset="48%" stop-color="#1D6DFF" stop-opacity=".10"/>
      <stop offset="100%" stop-color="#070707" stop-opacity="0"/>
    </radialGradient>
    <linearGradient id="glass" x1="0" y1="0" x2="1" y2="1">
      <stop offset="0%" stop-color="#242833"/>
      <stop offset="55%" stop-color="#1B1D23"/>
      <stop offset="100%" stop-color="#0C0E13"/>
    </linearGradient>
    <filter id="softShadow" x="-20%" y="-20%" width="140%" height="140%">
      <feDropShadow dx="0" dy="34" stdDeviation="28" flood-color="#000000" flood-opacity=".45"/>
    </filter>
  </defs>
  <rect width="1200" height="900" fill="#070707"/>
  <rect width="1200" height="900" fill="url(#blueGlow)"/>
  <g opacity=".42">
    <path d="M0 720 C230 612 340 832 560 704 C760 588 916 642 1200 520" fill="none" stroke="#1D6DFF" stroke-width="2"/>
    <path d="M0 224 C220 148 356 286 530 204 C720 116 914 184 1200 78" fill="none" stroke="#2A2E39" stroke-width="2"/>
    <path d="M110 0 V900 M330 0 V900 M550 0 V900 M770 0 V900 M990 0 V900" stroke="#2A2E39" stroke-width="1" opacity=".24"/>
  </g>
  <g filter="url(#softShadow)" transform="">
      <rect x="220" y="170" width="620" height="506" rx="54" fill="url(#glass)" stroke="#2A2E39" stroke-width="3"/>
      <rect x="336" y="232" width="290" height="354" rx="38" fill="#F5F7FB"/>
      <rect x="646" y="242" width="86" height="330" rx="28" fill="#050608"/>
      <circle cx="746" cy="278" r="18" fill="#1D6DFF"/><rect x="712" y="328" width="92" height="9" rx="5" fill="#A7ACB8" opacity=".55"/><rect x="712" y="354" width="118" height="9" rx="5" fill="#A7ACB8" opacity=".38"/>
      <rect x="280" y="632" width="520" height="54" rx="18" fill="#050608" opacity=".5"/>
      <text x="540" y="667" fill="#FFFFFF" font-family="Inter,Arial" font-size="28" font-weight="800" text-anchor="middle">DETALLE DEMO</text>
    </g>
</svg>