<svg xmlns="http://www.w3.org/2000/svg" width="1200" height="900" viewBox="0 0 1200 900" role="img" aria-label="CONTROL PS DEMO">
  <defs>
    <radialGradient id="blueGlow" cx="50%" cy="34%" r="68%">
      <stop offset="0%" stop-color="#1D6DFF" stop-opacity=".42"/>
      <stop offset="48%" stop-color="#1D6DFF" stop-opacity=".10"/>
      <stop offset="100%" stop-color="#070707" stop-opacity="0"/>
    </radialGradient>
    <linearGradient id="glass" x1="0" y1="0" x2="1" y2="1">
      <stop offset="0%" stop-color="#242833"/>
      <stop offset="55%" stop-color="#1B1D23"/>
      <stop offset="100%" stop-color="#0C0E13"/>
    </linearGradient>
    <filter id="softShadow" x="-20%" y="-20%" width="140%" height="140%">
      <feDropShadow dx="0" dy="34" stdDeviation="28" flood-color="#000000" flood-opacity=".45"/>
    </filter>
  </defs>
  <rect width="1200" height="900" fill="#070707"/>
  <rect width="1200" height="900" fill="url(#blueGlow)"/>
  <g opacity=".42">
    <path d="M0 720 C230 612 340 832 560 704 C760 588 916 642 1200 520" fill="none" stroke="#1D6DFF" stroke-width="2"/>
    <path d="M0 224 C220 148 356 286 530 204 C720 116 914 184 1200 78" fill="none" stroke="#2A2E39" stroke-width="2"/>
    <path d="M110 0 V900 M330 0 V900 M550 0 V900 M770 0 V900 M990 0 V900" stroke="#2A2E39" stroke-width="1" opacity=".24"/>
  </g>
  <g filter="url(#softShadow)">
      <path d="M300 342c74-128 526-128 600 0 72 126 116 292 48 336-58 38-134-32-192-112H444c-58 80-134 150-192 112-68-44-24-210 48-336z" fill="#F5F7FB"/>
      <path d="M300 342c74-128 526-128 600 0" fill="none" stroke="#1D6DFF" stroke-width="18" stroke-linecap="round" opacity=".72"/>
      <circle cx="386" cy="344" r="34" fill="#050608"/><circle cx="744" cy="340" r="15" fill="#4D8CFF"/><circle cx="792" cy="386" r="15" fill="#22C55E"/><circle cx="698" cy="386" r="15" fill="#EF4444"/>
      <rect x="480" y="406" width="240" height="26" rx="13" fill="#050608" opacity=".18"/>
      <text x="600" y="742" fill="#FFFFFF" font-family="Inter,Arial" font-size="32" font-weight="800" text-anchor="middle">CONTROL PS DEMO</text>
    </g>
</svg>